<?xml version="1.0" encoding="utf-8" ?><svg xmlns="http://www.w3.org/2000/svg" xmlns:xlink="http://www.w3.org/1999/xlink" width="512" height="512" viewBox="0 0 512 512"><path fill="#AD814E" d="M103.176 280.523L87.2799 280.536C69.9397 280.682 70.8336 278.87 70.884 261.66L70.8658 120.638C70.812 113.805 69.5251 104.31 79.2495 104.003C85.2503 103.813 91.2936 103.878 97.298 103.877L333.481 103.879C361.512 103.882 358.514 102.542 358.426 130.991C365.308 130.437 372.795 131.448 379.746 130.855C389.801 129.998 389.069 137.345 389.051 144.616L389.009 157.992C395.417 158.829 417.132 156.154 420.986 159.819C425.007 163.644 423.282 173.069 423.28 178.039L423.271 296.908C420.139 296.608 415.175 295.263 412.019 294.494C404.677 293.181 396.441 290.636 389.009 288.9C383.302 287.82 374.77 285.125 368.779 283.579L309.112 268.23C305 267.22 300.87 264.746 297.987 268.989C298.725 275.404 303.741 289.781 305.74 296.533L311.174 315.174C311.96 317.866 312.979 321.814 313.895 324.292L314.922 326.832C315.198 328.032 315.696 330.08 316.12 331.242C318.009 337.702 321.125 344.956 322.135 351.531C323.601 355.529 324.466 359.13 325.453 363.251C316.315 363.603 304.685 363.255 295.366 363.254L193.376 363.241C162.52 363.251 165.601 365.248 165.655 337.264L149.393 337.286C145.006 337.291 134.742 338.215 134.028 331.507C133.286 324.524 133.751 317.194 133.764 310.135C127.19 310.223 120.558 310.005 113.921 310.218C102.479 310.585 103.155 302.92 103.157 294.54L103.176 280.523Z"/><path fill="#9CC8D9" d="M177.848 169.821L412.019 169.821C411.888 174.137 412.014 179.178 412.015 183.564L412.019 294.494C404.677 293.181 396.441 290.636 389.009 288.9C383.302 287.82 374.77 285.125 368.779 283.579L309.112 268.23C305 267.22 300.87 264.746 297.987 268.989C298.725 275.404 303.741 289.781 305.74 296.533L311.174 315.174C311.96 317.866 312.979 321.814 313.895 324.292L314.922 326.832C315.198 328.032 315.696 330.08 316.12 331.242C318.009 337.702 321.125 344.956 322.135 351.531L177.848 351.531C177.997 345.059 177.852 337.964 177.851 331.449L177.848 169.821Z"/><path fill="#AD814E" d="M271.873 272.735C276.62 267.305 282.093 259.885 286.604 254.106L311.155 223.093C313.909 219.669 320.427 210.98 323.188 208.17L384.33 282.819C385.101 283.776 389.066 288.146 389.009 288.9C383.302 287.82 374.77 285.125 368.779 283.579L309.112 268.23C305 267.22 300.87 264.746 297.987 268.989C298.725 275.404 303.741 289.781 305.74 296.533L311.174 315.174C311.96 317.866 312.979 321.814 313.895 324.292C311.866 323.762 306.907 315.828 305.271 313.82L281.15 283.718C279.342 281.486 272.894 274.469 271.873 272.735Z"/><path fill="#847142" d="M257.806 255.266C262.527 261.348 266.803 266.937 271.873 272.735C272.894 274.469 279.342 281.486 281.15 283.718L305.271 313.82C306.907 315.828 311.866 323.762 313.895 324.292L314.922 326.832C313.881 326.638 307.242 326.798 305.667 326.804L227.878 326.836C218.441 326.836 208.734 326.705 199.322 326.832C202.164 323.017 205.672 318.916 208.666 315.147L248.269 266.335C251.347 262.599 254.417 258.714 257.806 255.266Z"/><path fill="#523607" d="M199.322 326.832C208.734 326.705 218.441 326.836 227.878 326.836L305.667 326.804C307.242 326.798 313.881 326.638 314.922 326.832C315.198 328.032 315.696 330.08 316.12 331.242L195.929 331.242C197.128 329.481 197.934 328.459 199.322 326.832Z"/><path fill="#F23A29" d="M221.076 204.448C231.582 203.014 241.253 210.391 242.647 220.902C244.042 231.413 236.63 241.056 226.113 242.412C215.652 243.761 206.07 236.396 204.683 225.939C203.295 215.483 210.625 205.874 221.076 204.448Z"/><path fill="#A5A68A" d="M85.1102 116.238C87.267 116.03 92.8637 116.22 95.3146 116.223L332.952 116.237C337.57 116.233 342.62 116.052 347.165 116.238C347.304 120.925 347.141 126.238 347.165 130.991L205.438 130.991L114.718 130.76C99.6144 130.774 103.151 145.602 103.163 156.825L103.178 241.385C103.176 250.425 102.979 260.013 103.176 268.989C97.1633 268.647 89.0951 269.024 82.8173 268.989L82.8173 116.238L85.1102 116.238Z"/><defs><linearGradient id="gradient_0" gradientUnits="userSpaceOnUse" x1="107.10085" y1="288.81442" x2="315.52478" y2="81.264763"><stop offset="0" stop-color="#9AA4A2"/><stop offset="1" stop-color="#A2C9DB"/></linearGradient></defs><path fill="url(#gradient_0)" d="M117.603 142.499L377.754 142.499L377.754 157.992L234.375 157.992C205.126 157.996 175.875 158.088 146.62 157.889C130.587 157.78 133.748 169.449 133.755 181.05L133.764 298.256L115.432 298.256C115.102 289.312 115.429 277.817 115.429 268.683L115.409 148.843C115.365 144.495 113.525 142.325 117.603 142.499Z"/><path fill="#98A4A1" d="M145.851 169.821C151.935 169.839 159.799 169.522 165.655 169.821C165.655 182.702 165.782 325.499 165.655 325.75L145.851 325.75C145.598 321.146 145.847 313.702 145.848 308.895L145.851 169.821Z"/><path fill="#C12407" d="M304.415 272.735C313.896 275.34 322.905 277.472 332.298 279.944L442.255 307.839C428.928 316.149 413.598 321.184 399.887 328.768C402.344 331.305 404.966 333.66 407.487 336.138L449.629 377.979C446.294 382.303 438.184 389.989 434.165 393.999L418.916 409.144C416.932 411.094 413.024 415.14 410.928 416.598C406.649 412.061 402.017 407.635 397.581 403.218L362.814 369.277C358.248 377.646 353.933 386.211 349.399 394.599C342.675 407.04 344.95 407.056 340.48 392.284L304.415 272.735Z"/></svg>